<svg width="21" height="21" viewBox="0 0 21 21" className='fill-black' xmlns="http://www.w3.org/2000/svg">
<path fill-rule="evenodd" clip-rule="evenodd" d="M1.85457 0.44127C1.46404 0.0507454 0.830878 0.0507454 0.440354 0.44127C0.0498299 0.831794 0.0498299 1.46496 0.440354 1.85548L8.89258 10.3077L0.440354 18.7599C0.0498299 19.1505 0.0498299 19.7836 0.440354 20.1742C0.830878 20.5647 1.46404 20.5647 1.85457 20.1742L10.3068 11.7219L18.759 20.1742C19.1496 20.5647 19.7827 20.5647 20.1732 20.1742C20.5638 19.7836 20.5638 19.1505 20.1732 18.7599L11.721 10.3077L20.1732 1.85548C20.5638 1.46496 20.5638 0.831794 20.1732 0.44127C19.7827 0.0507454 19.1496 0.0507454 18.759 0.44127L10.3068 8.8935L1.85457 0.44127Z" />
</svg>
